<svg xmlns="http://www.w3.org/2000/svg" shape-rendering="geometricPrecision" text-rendering="geometricPrecision" image-rendering="optimizeQuality" fill-rule="evenodd" clip-rule="evenodd" viewBox="0 0 512 512"><circle fill="#01A437" transform="rotate(45 -181.019 437.02) scale(3.28877)" r="77.84"/><path fill="#fff" d="m162.27 317.75-30.92 30.65 39.62 39.61 31.29-31.03c69.87 57.6 131.69-3.38 177.78-49.48L357.55 285l49.47-49.45c8.33-8.33 8.33-21.98 0-30.32-8.34-8.34-21.99-8.33-30.32 0l-49.46 49.46-63.1-63.09 49.46-49.47c8.34-8.33 8.34-21.98 0-30.31-8.34-8.34-21.98-8.34-30.32 0l-49.46 49.46-21.69-21.7c-47.36 47.36-106.64 105.87-49.86 178.17z"/></svg>