<svg xmlns="http://www.w3.org/2000/svg" shape-rendering="geometricPrecision" text-rendering="geometricPrecision" image-rendering="optimizeQuality" fill-rule="evenodd" clip-rule="evenodd" viewBox="0 0 512 512"><circle fill="#EF4136" transform="rotate(45 -181.019 437.02) scale(3.28877)" r="77.84"/><path fill="#fff" d="m162.03 311.94-28.73 28.73 39.61 39.62 29.11-29.12c30.83 25.41 60.09 27.74 87.12 18.45L143.65 224.13c-9.12 26.74-6.66 55.93 18.38 87.81zm-31.46-150.11c-6.42-6.42-6.42-16.83 0-23.25 6.42-6.42 16.83-6.42 23.25 0l27.22 27.22c9.99-11.21 20.7-21.87 30.85-32.03l21.7 21.69 49.46-49.45c8.33-8.34 21.98-8.34 30.32 0 8.33 8.33 8.33 21.98 0 30.31l-49.47 49.47 63.1 63.09 49.46-49.46c8.34-8.34 21.98-8.34 30.32 0s8.33 21.98 0 30.31l-49.47 49.46 22.5 22.5c-10 10-20.74 20.7-32.14 30.74L375 359.76c6.42 6.41 6.42 16.83 0 23.25-6.42 6.41-16.84 6.41-23.25 0L130.57 161.83z"/></svg>